<svg xmlns="http://www.w3.org/2000/svg" width="182.092" height="117.192" viewBox="0 0 182.092 117.192">
  <path id="sass" d="M156.638,67.536a42.644,42.644,0,0,0-16.5,3.3c-1.707-2.9-3.414-5.436-3.7-7.329a17.462,17.462,0,0,1-.32-6.169c.391-2.626,2.17-6.352,2.17-6.657-.036-.275-.391-1.619-4.055-1.649s-6.829.611-7.185,1.435a31.348,31.348,0,0,0-1.529,4.672c-.64,2.871-7.327,13.04-11.133,18.384-1.245-2.077-2.312-3.909-2.525-5.375a17.461,17.461,0,0,1-.32-6.169c.391-2.626,2.17-6.352,2.17-6.657-.036-.275-.391-1.619-4.055-1.649s-6.829.611-7.185,1.435-.747,2.779-1.529,4.672c-.747,1.893-9.639,18.873-11.951,23.3-1.174,2.26-2.205,4.062-2.952,5.283s-.036.092-.107.214c-.64,1.038-1,1.619-1,1.619v.031c-.5.763-1.031,1.5-1.28,1.5-.178,0-.534-2.046.071-4.856,1.316-5.894,4.517-15.086,4.482-15.422,0-.153.6-1.771-2.063-2.6a3.6,3.6,0,0,0-3.735.55c-.213,0-.391.489-.391.489S84.9,59.535,76.5,59.535c-5.264,0-12.52,4.917-16.112,9.406-2.276,1.069-7.114,3.329-12.235,5.741-1.956.916-3.984,1.893-5.9,2.779l-.391-.366C31.688,67.78,12.872,61.184,13.655,48.663c.285-4.55,2.134-16.552,36.137-31.089,27.85-11.91,50.151-8.642,54.028-1.374C109.332,26.583,91.9,45.884,62.952,48.663c-11.026,1.069-16.824-2.6-18.282-3.97-1.529-1.435-1.743-1.5-2.312-1.222-.925.428-.356,1.71,0,2.474.854,1.924,4.41,5.344,10.457,7.054,5.3,1.5,18.246,2.321,33.9-2.871C104.246,44.3,117.94,28.11,113.921,14.582,109.83.808,83.226-3.711,58.079,3.954,43.105,8.535,26.886,15.681,15.22,25.056,1.348,36.172-.857,45.884.068,49.915,3.3,64.3,26.388,73.674,35.636,80.606c-.462.214-.889.428-1.28.611-4.624,1.954-22.23,9.864-26.64,18.232-4.98,9.467.782,16.277,4.624,17.193a30.66,30.66,0,0,0,30.624-10.658c6.544-8.4,5.762-19.3,2.739-24.278l-.107-.183,3.628-1.832c2.347-1.191,4.659-2.29,6.687-3.237a33.391,33.391,0,0,0-2.383,10.383c-.5,5.375,2.063,12.338,5.442,15.086a6.714,6.714,0,0,0,4.375,1.222c3.912,0,5.691-2.779,7.647-6.108,2.419-4.062,4.553-8.765,4.553-8.765s-2.668,12.735,4.624,12.735c2.668,0,5.335-2.962,6.544-4.489v.031s.071-.092.213-.305c.285-.366.427-.58.427-.58V95.6c1.067-1.588,3.45-5.222,7.007-11.238,4.588-7.757,9-17.468,9-17.468a49.147,49.147,0,0,0,1.743,6.291c.782,2.321,2.49,4.856,3.806,7.329C107.839,81.8,107.2,82.53,107.2,82.53l.036.031c-.854.977-1.814,2.016-2.81,3.054-3.628,3.726-7.967,7.971-8.536,9.192-.676,1.435-.534,2.5.783,3.359a8.142,8.142,0,0,0,4.482.611,22.706,22.706,0,0,0,6.687-1.313,24.71,24.71,0,0,0,5.762-2.6c3.557-2.26,5.726-5.466,5.513-9.742a17.44,17.44,0,0,0-2.1-6.871c.32-.4.64-.794.96-1.222a125.354,125.354,0,0,0,9.959-14.811,49.146,49.146,0,0,0,1.743,6.291,41.251,41.251,0,0,0,3.237,6.291c-5.264,3.7-8.572,7.971-9.71,10.78-2.1,5.192-.462,7.543,2.632,8.093a10.813,10.813,0,0,0,4.873-.855,23.608,23.608,0,0,0,6.153-2.718c3.557-2.26,6.971-5.405,6.793-9.65a16.344,16.344,0,0,0-1.529-5.711A39.943,39.943,0,0,1,159.768,73c15.828,1.588,18.958,10.078,18.353,13.62s-3.912,5.5-5.015,6.108c-1.1.58-1.458.794-1.352,1.222.142.641.64.611,1.6.489,1.316-.183,8.323-2.9,8.607-9.437.427-8.4-8.856-17.56-25.324-17.468ZM34.569,102.869c-5.228,4.917-12.591,6.78-15.721,5.192-3.379-1.68-2.063-8.917,4.375-14.139a84.1,84.1,0,0,1,12.342-7.91c.747-.4,1.885-.977,3.237-1.68a3.876,3.876,0,0,1,.356-.183c.249-.122.534-.275.818-.428,2.383,7.451.107,13.987-5.406,19.148ZM72.8,80.545c-1.814,3.817-5.655,13.62-7.967,13.071-1.992-.458-3.2-7.879-.391-15.208a32.9,32.9,0,0,1,6.224-9.8c2.881-2.749,6.011-3.665,6.793-2.535C78.388,67.536,73.942,78.163,72.8,80.545Zm31.549,12.948c-.783.336-1.494.58-1.814.4-.249-.122.32-.58.32-.58s3.948-3.634,5.513-5.314c.889-.977,1.956-2.107,3.094-3.39v.366C111.466,89.371,106.558,92.3,104.353,93.494Zm24.328-4.764c-.569-.366-.5-1.5,1.423-5.039a19.472,19.472,0,0,1,5.406-5.986,6.61,6.61,0,0,1,.534,2.626C136.008,85.829,131.456,87.875,128.681,88.73Z" transform="translate(0.116 -0.241)" fill="#cf649a"/>
</svg>
